<svg xmlns="http://www.w3.org/2000/svg" xmlns:xlink="http://www.w3.org/1999/xlink" contentStyleType="text/css" data-diagram-type="SEQUENCE" height="495px" preserveAspectRatio="none" style="width:691px;height:495px;background:#FFFFFF;" version="1.1" viewBox="0 0 691 495" width="691px" zoomAndPan="magnify"><defs/><g><rect fill="#FFFFFF" fill-opacity="0.00000" height="63.582" style="stroke:#000000;stroke-width:1.5;" width="184.0352" x="30" y="55.6211"/><rect fill="#FFFFFF" fill-opacity="0.00000" height="307.3281" style="stroke:#000000;stroke-width:1.5;" width="263.3784" x="10" y="133.2031"/><rect fill="#FFFFFF" fill-opacity="0.00000" height="141.1641" style="stroke:#000000;stroke-width:1.5;" width="243.3784" x="20" y="248.0762"/><rect fill="#FFFFFF" fill-opacity="0.00000" height="63.582" style="stroke:#000000;stroke-width:1.5;" width="178.2588" x="30" y="318.6582"/><g><title>OpenDataMainLoader</title><rect fill="#FFFFFF" fill-opacity="0.00000" height="418.9102" width="8" x="111.8789" y="38.6211"/><line style="stroke:#181818;stroke-width:0.5;stroke-dasharray:5.0,5.0;" x1="115" x2="115" y1="38.6211" y2="457.5313"/></g><g><title>OpenDataLoader</title><rect fill="#FFFFFF" fill-opacity="0.00000" height="418.9102" width="8" x="258.4644" y="38.6211"/><line style="stroke:#181818;stroke-width:0.5;stroke-dasharray:5.0,5.0;" x1="261.7578" x2="261.7578" y1="38.6211" y2="457.5313"/></g><g><title>OpenDataRetriever</title><rect fill="#FFFFFF" fill-opacity="0.00000" height="418.9102" width="8" x="396.4775" y="38.6211"/><line style="stroke:#181818;stroke-width:0.5;stroke-dasharray:5.0,5.0;" x1="400.1709" x2="400.1709" y1="38.6211" y2="457.5313"/></g><g><title>OpenData Hawaii</title><rect fill="#FFFFFF" fill-opacity="0.00000" height="418.9102" width="8" x="535.646" y="38.6211"/><line style="stroke:#181818;stroke-width:0.5;stroke-dasharray:5.0,5.0;" x1="538.7842" x2="538.7842" y1="38.6211" y2="457.5313"/></g><g><title>Database</title><rect fill="#FFFFFF" fill-opacity="0.00000" height="418.9102" width="8" x="644.4731" y="38.6211"/><line style="stroke:#181818;stroke-width:0.5;stroke-dasharray:5.0,5.0;" x1="647.5078" x2="647.5078" y1="38.6211" y2="457.5313"/></g><g><rect fill="#E2E2F0" height="32.6211" rx="2.5" ry="2.5" style="stroke:#181818;stroke-width:0.5;" width="151.7578" x="40" y="5"/><text fill="#000000" font-family="sans-serif" font-size="14" lengthAdjust="spacing" textLength="137.7578" x="47" y="27.1074">OpenDataMainLoader</text></g><g><rect fill="#E2E2F0" height="32.6211" rx="2.5" ry="2.5" style="stroke:#181818;stroke-width:0.5;" width="151.7578" x="40" y="456.5313"/><text fill="#000000" font-family="sans-serif" font-size="14" lengthAdjust="spacing" textLength="137.7578" x="47" y="478.6387">OpenDataMainLoader</text></g><g><rect fill="#E2E2F0" height="32.6211" rx="2.5" ry="2.5" style="stroke:#181818;stroke-width:0.5;" width="121.4131" x="201.7578" y="5"/><text fill="#000000" font-family="sans-serif" font-size="14" lengthAdjust="spacing" textLength="107.4131" x="208.7578" y="27.1074">OpenDataLoader</text></g><g><rect fill="#E2E2F0" height="32.6211" rx="2.5" ry="2.5" style="stroke:#181818;stroke-width:0.5;" width="121.4131" x="201.7578" y="456.5313"/><text fill="#000000" font-family="sans-serif" font-size="14" lengthAdjust="spacing" textLength="107.4131" x="208.7578" y="478.6387">OpenDataLoader</text></g><g><rect fill="#E2E2F0" height="32.6211" rx="2.5" ry="2.5" style="stroke:#181818;stroke-width:0.5;" width="134.6133" x="333.1709" y="5"/><text fill="#000000" font-family="sans-serif" font-size="14" lengthAdjust="spacing" textLength="120.6133" x="340.1709" y="27.1074">OpenDataRetriever</text></g><g><rect fill="#E2E2F0" height="32.6211" rx="2.5" ry="2.5" style="stroke:#181818;stroke-width:0.5;" width="134.6133" x="333.1709" y="456.5313"/><text fill="#000000" font-family="sans-serif" font-size="14" lengthAdjust="spacing" textLength="120.6133" x="340.1709" y="478.6387">OpenDataRetriever</text></g><g><rect fill="#E2E2F0" height="32.6211" rx="2.5" ry="2.5" style="stroke:#181818;stroke-width:0.5;" width="123.7236" x="477.7842" y="5"/><text fill="#000000" font-family="sans-serif" font-size="14" lengthAdjust="spacing" textLength="109.7236" x="484.7842" y="27.1074">OpenData Hawaii</text></g><g><rect fill="#E2E2F0" height="32.6211" rx="2.5" ry="2.5" style="stroke:#181818;stroke-width:0.5;" width="123.7236" x="477.7842" y="456.5313"/><text fill="#000000" font-family="sans-serif" font-size="14" lengthAdjust="spacing" textLength="109.7236" x="484.7842" y="478.6387">OpenData Hawaii</text></g><g><rect fill="#E2E2F0" height="32.6211" rx="2.5" ry="2.5" style="stroke:#181818;stroke-width:0.5;" width="73.9307" x="611.5078" y="5"/><text fill="#000000" font-family="sans-serif" font-size="14" lengthAdjust="spacing" textLength="59.9307" x="618.5078" y="27.1074">Database</text></g><g><rect fill="#E2E2F0" height="32.6211" rx="2.5" ry="2.5" style="stroke:#181818;stroke-width:0.5;" width="73.9307" x="611.5078" y="456.5313"/><text fill="#000000" font-family="sans-serif" font-size="14" lengthAdjust="spacing" textLength="59.9307" x="618.5078" y="478.6387">Database</text></g><path d="M30,55.6211 L101.7236,55.6211 L101.7236,64.9121 L91.7236,74.9121 L30,74.9121 L30,55.6211 " fill="#EEEEEE" style="stroke:#000000;stroke-width:1.5;"/><rect fill="#FFFFFF" fill-opacity="0.00000" height="63.582" style="stroke:#000000;stroke-width:1.5;" width="184.0352" x="30" y="55.6211"/><text fill="#000000" font-family="sans-serif" font-size="13" font-weight="bold" lengthAdjust="spacing" textLength="26.7236" x="45" y="70.6494">load</text><g><line style="stroke:#181818;stroke-width:1;" x1="115.8789" x2="157.8789" y1="98.2031" y2="98.2031"/><line style="stroke:#181818;stroke-width:1;" x1="157.8789" x2="157.8789" y1="98.2031" y2="111.2031"/><line style="stroke:#181818;stroke-width:1;" x1="116.8789" x2="157.8789" y1="111.2031" y2="111.2031"/><polygon fill="#181818" points="126.8789,107.2031,116.8789,111.2031,126.8789,115.2031,122.8789,111.2031" style="stroke:#181818;stroke-width:1;"/><text fill="#000000" font-family="sans-serif" font-size="13" font-weight="bold" lengthAdjust="spacing" textLength="7.23" x="122.8789" y="92.9404">1</text><text fill="#000000" font-family="sans-serif" font-size="13" lengthAdjust="spacing" textLength="67.9263" x="134.1089" y="92.9404">loadFiltered</text></g><path d="M10,133.2031 L128.6772,133.2031 L128.6772,142.4941 L118.6772,152.4941 L10,152.4941 L10,133.2031 " fill="#EEEEEE" style="stroke:#000000;stroke-width:1.5;"/><rect fill="#FFFFFF" fill-opacity="0.00000" height="307.3281" style="stroke:#000000;stroke-width:1.5;" width="263.3784" x="10" y="133.2031"/><text fill="#000000" font-family="sans-serif" font-size="13" font-weight="bold" lengthAdjust="spacing" textLength="73.6772" x="25" y="148.2314">loadFiltered</text><g><line style="stroke:#181818;stroke-width:1;" x1="115.8789" x2="157.8789" y1="175.7852" y2="175.7852"/><line style="stroke:#181818;stroke-width:1;" x1="157.8789" x2="157.8789" y1="175.7852" y2="188.7852"/><line style="stroke:#181818;stroke-width:1;" x1="116.8789" x2="157.8789" y1="188.7852" y2="188.7852"/><polygon fill="#181818" points="126.8789,184.7852,116.8789,188.7852,126.8789,192.7852,122.8789,188.7852" style="stroke:#181818;stroke-width:1;"/><text fill="#000000" font-family="sans-serif" font-size="13" font-weight="bold" lengthAdjust="spacing" textLength="7.23" x="122.8789" y="170.5225">1</text><text fill="#000000" font-family="sans-serif" font-size="13" lengthAdjust="spacing" textLength="67.228" x="134.1089" y="170.5225">shouldLoad</text></g><g><line style="stroke:#181818;stroke-width:1;" x1="115.8789" x2="157.8789" y1="220.0762" y2="220.0762"/><line style="stroke:#181818;stroke-width:1;" x1="157.8789" x2="157.8789" y1="220.0762" y2="233.0762"/><line style="stroke:#181818;stroke-width:1;" x1="116.8789" x2="157.8789" y1="233.0762" y2="233.0762"/><polygon fill="#181818" points="126.8789,229.0762,116.8789,233.0762,126.8789,237.0762,122.8789,233.0762" style="stroke:#181818;stroke-width:1;"/><text fill="#000000" font-family="sans-serif" font-size="13" font-weight="bold" lengthAdjust="spacing" textLength="7.23" x="122.8789" y="214.8135">2</text><text fill="#000000" font-family="sans-serif" font-size="13" lengthAdjust="spacing" textLength="46.2427" x="134.1089" y="214.8135">initialize</text></g><path d="M20,248.0762 L92.4346,248.0762 L92.4346,257.3672 L82.4346,267.3672 L20,267.3672 L20,248.0762 " fill="#EEEEEE" style="stroke:#000000;stroke-width:1.5;"/><rect fill="#FFFFFF" fill-opacity="0.00000" height="141.1641" style="stroke:#000000;stroke-width:1.5;" width="243.3784" x="20" y="248.0762"/><text fill="#000000" font-family="sans-serif" font-size="13" font-weight="bold" lengthAdjust="spacing" textLength="27.4346" x="35" y="263.1045">loop</text><text fill="#000000" font-family="sans-serif" font-size="11" font-weight="bold" lengthAdjust="spacing" textLength="150.9438" x="107.4346" y="261.9463">[do until count(objects) == 0]</text><g><line style="stroke:#181818;stroke-width:1;" x1="115.8789" x2="157.8789" y1="290.6582" y2="290.6582"/><line style="stroke:#181818;stroke-width:1;" x1="157.8789" x2="157.8789" y1="290.6582" y2="303.6582"/><line style="stroke:#181818;stroke-width:1;" x1="116.8789" x2="157.8789" y1="303.6582" y2="303.6582"/><polygon fill="#181818" points="126.8789,299.6582,116.8789,303.6582,126.8789,307.6582,122.8789,303.6582" style="stroke:#181818;stroke-width:1;"/><text fill="#000000" font-family="sans-serif" font-size="13" font-weight="bold" lengthAdjust="spacing" textLength="7.23" x="122.8789" y="285.3955">3</text><text fill="#000000" font-family="sans-serif" font-size="13" lengthAdjust="spacing" textLength="43.3481" x="134.1089" y="285.3955">retrieve</text></g><path d="M30,318.6582 L102.4346,318.6582 L102.4346,327.9492 L92.4346,337.9492 L30,337.9492 L30,318.6582 " fill="#EEEEEE" style="stroke:#000000;stroke-width:1.5;"/><rect fill="#FFFFFF" fill-opacity="0.00000" height="63.582" style="stroke:#000000;stroke-width:1.5;" width="178.2588" x="30" y="318.6582"/><text fill="#000000" font-family="sans-serif" font-size="13" font-weight="bold" lengthAdjust="spacing" textLength="27.4346" x="45" y="333.6865">loop</text><text fill="#000000" font-family="sans-serif" font-size="11" font-weight="bold" lengthAdjust="spacing" textLength="85.5669" x="117.4346" y="332.5283">[for each object]</text><g><line style="stroke:#181818;stroke-width:1;" x1="115.8789" x2="157.8789" y1="361.2402" y2="361.2402"/><line style="stroke:#181818;stroke-width:1;" x1="157.8789" x2="157.8789" y1="361.2402" y2="374.2402"/><line style="stroke:#181818;stroke-width:1;" x1="116.8789" x2="157.8789" y1="374.2402" y2="374.2402"/><polygon fill="#181818" points="126.8789,370.2402,116.8789,374.2402,126.8789,378.2402,122.8789,374.2402" style="stroke:#181818;stroke-width:1;"/><text fill="#000000" font-family="sans-serif" font-size="13" font-weight="bold" lengthAdjust="spacing" textLength="7.23" x="122.8789" y="355.9775">4</text><text fill="#000000" font-family="sans-serif" font-size="13" lengthAdjust="spacing" textLength="62.1499" x="134.1089" y="355.9775">loadObject</text></g><g><line style="stroke:#181818;stroke-width:1;" x1="115.8789" x2="157.8789" y1="419.5313" y2="419.5313"/><line style="stroke:#181818;stroke-width:1;" x1="157.8789" x2="157.8789" y1="419.5313" y2="432.5313"/><line style="stroke:#181818;stroke-width:1;" x1="116.8789" x2="157.8789" y1="432.5313" y2="432.5313"/><polygon fill="#181818" points="126.8789,428.5313,116.8789,432.5313,126.8789,436.5313,122.8789,432.5313" style="stroke:#181818;stroke-width:1;"/><text fill="#000000" font-family="sans-serif" font-size="13" font-weight="bold" lengthAdjust="spacing" textLength="7.23" x="122.8789" y="414.2686">5</text><text fill="#000000" font-family="sans-serif" font-size="13" lengthAdjust="spacing" textLength="40.4663" x="134.1089" y="414.2686">finalize</text></g><!--SRC=[XP1DJWCn38NtEONL3R0emxfIMI7KHL4bRk19t8vH9Wxv0OdJ4z9EPogLwIQHdUyzE- -kIyd7LTDuYoxbtZvgwPj8dvcSfgLXF0JibSASnEM-fQ2Knv1Oioy2MEmykHTC-8RijeA6mW8mGdykh-CJDBAXEVITKc3wEj5XgAx3iC5lPAwed7gNv5-dnKWLCQrIXo3PWoqRA9Zi3SldIRMgm2lRH86C8cUWwYwJ6QtEv9nbx2HRixqrcHqdHii_L30hui48P9VOWfPotqlxGJh51rYluQamSsP3VXMhPdi9GAWxEDhKXrj1x4QqHA66yt_Hdjtn1sDolm00]--></g></svg>