<svg xmlns="http://www.w3.org/2000/svg" xmlns:xlink="http://www.w3.org/1999/xlink" contentStyleType="text/css" data-diagram-type="SEQUENCE" height="254px" preserveAspectRatio="none" style="width:681px;height:254px;background:#FFFFFF;" version="1.1" viewBox="0 0 681 254" width="681px" zoomAndPan="magnify"><defs/><g><rect fill="#FFFFFF" fill-opacity="0.00000" height="144.4551" style="stroke:#000000;stroke-width:1.5;" width="665.4385" x="10" y="55.6211"/><g><title>OpenDataMainLoader</title><rect fill="#FFFFFF" fill-opacity="0.00000" height="178.4551" width="8" x="91.8789" y="38.6211"/><line style="stroke:#181818;stroke-width:0.5;stroke-dasharray:5.0,5.0;" x1="95" x2="95" y1="38.6211" y2="217.0762"/></g><g><title>OpenDataLoader</title><rect fill="#FFFFFF" fill-opacity="0.00000" height="178.4551" width="8" x="238.4644" y="38.6211"/><line style="stroke:#181818;stroke-width:0.5;stroke-dasharray:5.0,5.0;" x1="241.7578" x2="241.7578" y1="38.6211" y2="217.0762"/></g><g><title>OpenDataRetriever</title><rect fill="#FFFFFF" fill-opacity="0.00000" height="178.4551" width="8" x="376.4775" y="38.6211"/><line style="stroke:#181818;stroke-width:0.5;stroke-dasharray:5.0,5.0;" x1="380.1709" x2="380.1709" y1="38.6211" y2="217.0762"/></g><g><title>OpenData Hawaii</title><rect fill="#FFFFFF" fill-opacity="0.00000" height="178.4551" width="8" x="515.646" y="38.6211"/><line style="stroke:#181818;stroke-width:0.5;stroke-dasharray:5.0,5.0;" x1="518.7842" x2="518.7842" y1="38.6211" y2="217.0762"/></g><g><title>Database</title><rect fill="#FFFFFF" fill-opacity="0.00000" height="178.4551" width="8" x="624.4731" y="38.6211"/><line style="stroke:#181818;stroke-width:0.5;stroke-dasharray:5.0,5.0;" x1="627.5078" x2="627.5078" y1="38.6211" y2="217.0762"/></g><g><rect fill="#E2E2F0" height="32.6211" rx="2.5" ry="2.5" style="stroke:#181818;stroke-width:0.5;" width="151.7578" x="20" y="5"/><text fill="#000000" font-family="sans-serif" font-size="14" lengthAdjust="spacing" textLength="137.7578" x="27" y="27.1074">OpenDataMainLoader</text></g><g><rect fill="#E2E2F0" height="32.6211" rx="2.5" ry="2.5" style="stroke:#181818;stroke-width:0.5;" width="151.7578" x="20" y="216.0762"/><text fill="#000000" font-family="sans-serif" font-size="14" lengthAdjust="spacing" textLength="137.7578" x="27" y="238.1836">OpenDataMainLoader</text></g><g><rect fill="#E2E2F0" height="32.6211" rx="2.5" ry="2.5" style="stroke:#181818;stroke-width:0.5;" width="121.4131" x="181.7578" y="5"/><text fill="#000000" font-family="sans-serif" font-size="14" lengthAdjust="spacing" textLength="107.4131" x="188.7578" y="27.1074">OpenDataLoader</text></g><g><rect fill="#E2E2F0" height="32.6211" rx="2.5" ry="2.5" style="stroke:#181818;stroke-width:0.5;" width="121.4131" x="181.7578" y="216.0762"/><text fill="#000000" font-family="sans-serif" font-size="14" lengthAdjust="spacing" textLength="107.4131" x="188.7578" y="238.1836">OpenDataLoader</text></g><g><rect fill="#E2E2F0" height="32.6211" rx="2.5" ry="2.5" style="stroke:#181818;stroke-width:0.5;" width="134.6133" x="313.1709" y="5"/><text fill="#000000" font-family="sans-serif" font-size="14" lengthAdjust="spacing" textLength="120.6133" x="320.1709" y="27.1074">OpenDataRetriever</text></g><g><rect fill="#E2E2F0" height="32.6211" rx="2.5" ry="2.5" style="stroke:#181818;stroke-width:0.5;" width="134.6133" x="313.1709" y="216.0762"/><text fill="#000000" font-family="sans-serif" font-size="14" lengthAdjust="spacing" textLength="120.6133" x="320.1709" y="238.1836">OpenDataRetriever</text></g><g><rect fill="#E2E2F0" height="32.6211" rx="2.5" ry="2.5" style="stroke:#181818;stroke-width:0.5;" width="123.7236" x="457.7842" y="5"/><text fill="#000000" font-family="sans-serif" font-size="14" lengthAdjust="spacing" textLength="109.7236" x="464.7842" y="27.1074">OpenData Hawaii</text></g><g><rect fill="#E2E2F0" height="32.6211" rx="2.5" ry="2.5" style="stroke:#181818;stroke-width:0.5;" width="123.7236" x="457.7842" y="216.0762"/><text fill="#000000" font-family="sans-serif" font-size="14" lengthAdjust="spacing" textLength="109.7236" x="464.7842" y="238.1836">OpenData Hawaii</text></g><g><rect fill="#E2E2F0" height="32.6211" rx="2.5" ry="2.5" style="stroke:#181818;stroke-width:0.5;" width="73.9307" x="591.5078" y="5"/><text fill="#000000" font-family="sans-serif" font-size="14" lengthAdjust="spacing" textLength="59.9307" x="598.5078" y="27.1074">Database</text></g><g><rect fill="#E2E2F0" height="32.6211" rx="2.5" ry="2.5" style="stroke:#181818;stroke-width:0.5;" width="73.9307" x="591.5078" y="216.0762"/><text fill="#000000" font-family="sans-serif" font-size="14" lengthAdjust="spacing" textLength="59.9307" x="598.5078" y="238.1836">Database</text></g><path d="M10,55.6211 L128.6582,55.6211 L128.6582,64.9121 L118.6582,74.9121 L10,74.9121 L10,55.6211 " fill="#EEEEEE" style="stroke:#000000;stroke-width:1.5;"/><rect fill="#FFFFFF" fill-opacity="0.00000" height="144.4551" style="stroke:#000000;stroke-width:1.5;" width="665.4385" x="10" y="55.6211"/><text fill="#000000" font-family="sans-serif" font-size="13" font-weight="bold" lengthAdjust="spacing" textLength="73.6582" x="25" y="70.6494">shouldLoad</text><g><polygon fill="#181818" points="368.4775,94.2031,378.4775,98.2031,368.4775,102.2031,372.4775,98.2031" style="stroke:#181818;stroke-width:1;"/><line style="stroke:#181818;stroke-width:1;" x1="95.8789" x2="374.4775" y1="98.2031" y2="98.2031"/><text fill="#000000" font-family="sans-serif" font-size="13" font-weight="bold" lengthAdjust="spacing" textLength="7.23" x="102.8789" y="92.9404">1</text><text fill="#000000" font-family="sans-serif" font-size="13" lengthAdjust="spacing" textLength="91.7935" x="114.1089" y="92.9404">getLastUpdated</text></g><g><polygon fill="#181818" points="391.4775,125.4941,381.4775,129.4941,391.4775,133.4941,387.4775,129.4941" style="stroke:#181818;stroke-width:1;"/><polygon fill="#181818" points="507.646,125.4941,517.646,129.4941,507.646,133.4941,511.646,129.4941" style="stroke:#181818;stroke-width:1;"/><line style="stroke:#181818;stroke-width:1;" x1="385.4775" x2="513.646" y1="129.4941" y2="129.4941"/><text fill="#000000" font-family="sans-serif" font-size="13" font-weight="bold" lengthAdjust="spacing" textLength="7.23" x="397.4775" y="124.2314">2</text><text fill="#000000" font-family="sans-serif" font-size="13" lengthAdjust="spacing" textLength="77.3081" x="408.7075" y="124.2314">RetrieveMeta</text></g><g><polygon fill="#181818" points="106.8789,156.7852,96.8789,160.7852,106.8789,164.7852,102.8789,160.7852" style="stroke:#181818;stroke-width:1;"/><line style="stroke:#181818;stroke-width:1;" x1="100.8789" x2="379.4775" y1="160.7852" y2="160.7852"/><text fill="#000000" font-family="sans-serif" font-size="13" font-weight="bold" lengthAdjust="spacing" textLength="7.23" x="112.8789" y="155.5225">3</text><text fill="#000000" font-family="sans-serif" font-size="13" lengthAdjust="spacing" textLength="91.7935" x="124.1089" y="155.5225">getLastUpdated</text></g><g><polygon fill="#181818" points="106.8789,188.0762,96.8789,192.0762,106.8789,196.0762,102.8789,192.0762" style="stroke:#181818;stroke-width:1;"/><polygon fill="#181818" points="616.4731,188.0762,626.4731,192.0762,616.4731,196.0762,620.4731,192.0762" style="stroke:#181818;stroke-width:1;"/><line style="stroke:#181818;stroke-width:1;" x1="100.8789" x2="622.4731" y1="192.0762" y2="192.0762"/><text fill="#000000" font-family="sans-serif" font-size="13" font-weight="bold" lengthAdjust="spacing" textLength="7.23" x="112.8789" y="186.8135">4</text><text fill="#000000" font-family="sans-serif" font-size="13" lengthAdjust="spacing" textLength="86.0234" x="124.1089" y="186.8135">getLastLoaded</text></g><!--SRC=[VSw_2i9030RmFKyHN9oqUn4d1mT547o0j0dreFV7kvo-lcsnjK9nJEvt-RxrNJMaiYX2IqwpRRUrjqMIHnPNouODDP4i06NrBjjA8a2WgAOseVk0gqiGTo2bCnbtyiGILqW9xJGkynbDXkKVlOf68y-FZkEqZF58Bp9ceFwp-vNzfg8a0-4Ae8a-1qntdrlkUm3EskDc_uqiiH4zKT9RO5BfvVI6kqwEYIMEfS_IvSzPfxxN5mxEelkBN4rcs3A8OtW3]--></g></svg>