<svg xmlns="http://www.w3.org/2000/svg" xmlns:xlink="http://www.w3.org/1999/xlink" contentStyleType="text/css" data-diagram-type="CLASS" height="378.8px" preserveAspectRatio="none" style="width:772px;height:378px;background:#FFFFFF;" version="1.1" viewBox="0 0 772 378" width="772px" zoomAndPan="magnify"><defs/><g><!--class OpenDataRetriever--><g id="elem_OpenDataRetriever"><rect codeLine="3" fill="#F1F1F1" height="34.0969" id="OpenDataRetriever" rx="1" ry="1" style="stroke:#181818;stroke-width:0.2;" width="349.2848" x="2.8" y="187.4"/><ellipse cx="151.6197" cy="193.8" fill="#ADD1B2" rx="4.4" ry="4.4" style="stroke:#181818;stroke-width:0.4;"/><path d="M152.726,192.15 Q152.7885,192.0625 152.8635,192.0188 Q152.9385,191.975 153.026,191.975 Q153.176,191.975 153.2697,192.0813 Q153.3635,192.1813 153.3635,192.425 L153.3635,193.0063 Q153.3635,193.25 153.2697,193.3563 Q153.176,193.4625 153.026,193.4625 Q152.8885,193.4625 152.8072,193.3813 Q152.726,193.3063 152.6822,193.1 Q152.6635,192.9563 152.5885,192.8813 Q152.4572,192.7313 152.2135,192.6438 Q151.9697,192.5563 151.7197,192.5563 Q151.4135,192.5563 151.1572,192.6875 Q150.9072,192.8188 150.7072,193.1188 Q150.5135,193.4188 150.5135,193.8313 L150.5135,194.2688 Q150.5135,194.7625 150.8697,195.0938 Q151.226,195.4188 151.8635,195.4188 Q152.2385,195.4188 152.501,195.3188 Q152.6572,195.2563 152.826,195.0813 Q152.9322,194.975 152.9885,194.9438 Q153.051,194.9125 153.1322,194.9125 Q153.2635,194.9125 153.3635,195.0188 Q153.4697,195.1188 153.4697,195.2563 Q153.4697,195.3938 153.3322,195.5563 Q153.1322,195.7875 152.8135,195.9188 Q152.3822,196.1 151.8635,196.1 Q151.2572,196.1 150.776,195.85 Q150.3822,195.65 150.1072,195.225 Q149.8322,194.7938 149.8322,194.2813 L149.8322,193.8188 Q149.8322,193.2875 150.076,192.8313 Q150.326,192.3688 150.7635,192.125 Q151.201,191.875 151.6947,191.875 Q151.9885,191.875 152.2447,191.9438 Q152.5072,192.0063 152.726,192.15 Z " fill="#000000"/><text fill="#000000" font-family="sans-serif" font-size="5.6" lengthAdjust="spacing" textLength="48.2453" x="159.8197" y="196.1188">OpenDataRetriever</text><line style="stroke:#181818;stroke-width:0.2;" x1="3.2" x2="351.6848" y1="200.2" y2="200.2"/><line style="stroke:#181818;stroke-width:0.2;" x1="3.2" x2="351.6848" y1="203.4" y2="203.4"/><ellipse cx="7.2" cy="209.3242" fill="#84BE84" rx="1.2" ry="1.2" style="stroke:#038048;stroke-width:0.4;"/><text fill="#000000" font-family="sans-serif" font-size="5.6" lengthAdjust="spacing" text-decoration="underline" textLength="93.6742" x="10.8" y="211.043">RetrieveMeta(resource: string): mixed</text><ellipse cx="7.2" cy="216.7727" fill="#84BE84" rx="1.2" ry="1.2" style="stroke:#038048;stroke-width:0.4;"/><text fill="#000000" font-family="sans-serif" font-size="5.6" lengthAdjust="spacing" text-decoration="underline" textLength="338.8848" x="10.8" y="218.4914">Retrieve(resource: string, [format: OpenDataFormat = OpenDataFormat::JSON], [limit: int = 500], [offset: int = 0], [filter: string = '']): mixed</text></g><g id="elem_GMN3"><path d="M138,29.4 L138,47.2328 A0,0 0 0 0 138,47.2328 L175.8,47.2328 L177.4,187.32 L179,47.2328 L216.9275,47.2328 A0,0 0 0 0 216.9275,47.2328 L216.9275,33.4 L212.9275,29.4 L138,29.4 A0,0 0 0 0 138,29.4 " fill="#FEFFDD" style="stroke:#181818;stroke-width:0.2;"/><path d="M212.9275,29.4 L212.9275,33.4 L216.9275,33.4 L212.9275,29.4 " fill="#FEFFDD" style="stroke:#181818;stroke-width:0.2;"/><text fill="#000000" font-family="sans-serif" font-size="5.2" lengthAdjust="spacing" textLength="70.5275" x="140.4" y="37.0113">Responsible for retrieving data</text><text fill="#000000" font-family="sans-serif" font-size="5.2" lengthAdjust="spacing" textLength="56.9385" x="140.4" y="43.9277">from the Open Data API.</text></g><!--class OpenDataLoader--><g id="elem_OpenDataLoader"><rect codeLine="14" fill="#F1F1F1" height="212.8594" id="OpenDataLoader" rx="1" ry="1" style="stroke:#181818;stroke-width:0.2;" width="282.525" x="487" y="98"/><ellipse cx="605.0799" cy="104.4" fill="#ADD1B2" rx="4.4" ry="4.4" style="stroke:#181818;stroke-width:0.4;"/><path d="M606.1861,102.75 Q606.2486,102.6625 606.3236,102.6188 Q606.3986,102.575 606.4861,102.575 Q606.6361,102.575 606.7299,102.6813 Q606.8236,102.7813 606.8236,103.025 L606.8236,103.6063 Q606.8236,103.85 606.7299,103.9563 Q606.6361,104.0625 606.4861,104.0625 Q606.3486,104.0625 606.2674,103.9813 Q606.1861,103.9063 606.1424,103.7 Q606.1236,103.5563 606.0486,103.4813 Q605.9174,103.3313 605.6736,103.2438 Q605.4299,103.1563 605.1799,103.1563 Q604.8736,103.1563 604.6174,103.2875 Q604.3674,103.4188 604.1674,103.7188 Q603.9736,104.0188 603.9736,104.4313 L603.9736,104.8688 Q603.9736,105.3625 604.3299,105.6938 Q604.6861,106.0188 605.3236,106.0188 Q605.6986,106.0188 605.9611,105.9188 Q606.1174,105.8563 606.2861,105.6813 Q606.3924,105.575 606.4486,105.5438 Q606.5111,105.5125 606.5924,105.5125 Q606.7236,105.5125 606.8236,105.6188 Q606.9299,105.7188 606.9299,105.8563 Q606.9299,105.9938 606.7924,106.1563 Q606.5924,106.3875 606.2736,106.5188 Q605.8424,106.7 605.3236,106.7 Q604.7174,106.7 604.2361,106.45 Q603.8424,106.25 603.5674,105.825 Q603.2924,105.3938 603.2924,104.8813 L603.2924,104.4188 Q603.2924,103.8875 603.5361,103.4313 Q603.7861,102.9688 604.2236,102.725 Q604.6611,102.475 605.1549,102.475 Q605.4486,102.475 605.7049,102.5438 Q605.9674,102.6063 606.1861,102.75 Z " fill="#000000"/><text fill="#000000" font-family="sans-serif" font-size="5.6" lengthAdjust="spacing" textLength="42.9652" x="613.2799" y="106.7188">OpenDataLoader</text><line style="stroke:#181818;stroke-width:0.2;" x1="487.4" x2="769.125" y1="110.8" y2="110.8"/><ellipse cx="491.4" cy="116.7242" fill="#FFFFFF" fill-opacity="0.00000" rx="1.2" ry="1.2" style="stroke:#038048;stroke-width:0.4;"/><text fill="#000000" font-family="sans-serif" font-size="5.6" lengthAdjust="spacing" text-decoration="underline" textLength="37.3406" x="495" y="118.443">INSERT: string</text><ellipse cx="491.4" cy="124.1727" fill="#FFFFFF" fill-opacity="0.00000" rx="1.2" ry="1.2" style="stroke:#038048;stroke-width:0.4;"/><text fill="#000000" font-family="sans-serif" font-size="5.6" lengthAdjust="spacing" text-decoration="underline" textLength="39.5199" x="495" y="125.8914">UPDATE: string</text><ellipse cx="491.4" cy="131.6211" fill="#FFFFFF" fill-opacity="0.00000" rx="1.2" ry="1.2" style="stroke:#038048;stroke-width:0.4;"/><text fill="#000000" font-family="sans-serif" font-size="5.6" lengthAdjust="spacing" text-decoration="underline" textLength="38.5902" x="495" y="133.3398">DELETE: string</text><ellipse cx="491.4" cy="139.0695" fill="#FFFFFF" fill-opacity="0.00000" rx="1.2" ry="1.2" style="stroke:#038048;stroke-width:0.4;"/><text fill="#000000" font-family="sans-serif" font-size="5.6" lengthAdjust="spacing" text-decoration="underline" textLength="38.5902" x="495" y="140.7883">SELECT: string</text><line style="stroke:#181818;stroke-width:0.2;" x1="487.4" x2="769.125" y1="143.7938" y2="143.7938"/><ellipse cx="491.4" cy="149.718" fill="#84BE84" rx="1.2" ry="1.2" style="stroke:#038048;stroke-width:0.4;"/><text fill="#000000" font-family="sans-serif" font-size="5.6" lengthAdjust="spacing" textLength="272.125" x="495" y="151.4367">__construct(title: string, conn: mysqli, resource: string, srcTable: string, dstTable: string, [keyName: string = ''])</text><ellipse cx="491.4" cy="157.1664" fill="#84BE84" rx="1.2" ry="1.2" style="stroke:#038048;stroke-width:0.4;"/><text fill="#000000" font-family="sans-serif" font-size="5.6" lengthAdjust="spacing" textLength="171.1391" x="495" y="158.8852">executeSQL(stmt: null|string, [silent: bool = false]): bool|mysqli_result</text><ellipse cx="491.4" cy="164.6148" fill="#84BE84" rx="1.2" ry="1.2" style="stroke:#038048;stroke-width:0.4;"/><text fill="#000000" font-family="sans-serif" font-size="5.6" lengthAdjust="spacing" textLength="167.1934" x="495" y="166.3336">executeStatement(stmt: mysqli_stmt|null, [silent: bool = false]): bool</text><ellipse cx="491.4" cy="172.0633" fill="#84BE84" rx="1.2" ry="1.2" style="stroke:#038048;stroke-width:0.4;"/><text fill="#000000" font-family="sans-serif" font-size="5.6" lengthAdjust="spacing" textLength="50.7309" x="495" y="173.782">incProcessed(): void</text><ellipse cx="491.4" cy="179.5117" fill="#84BE84" rx="1.2" ry="1.2" style="stroke:#038048;stroke-width:0.4;"/><text fill="#000000" font-family="sans-serif" font-size="5.6" lengthAdjust="spacing" textLength="47.6191" x="495" y="181.2305">incDuplicate(): void</text><ellipse cx="491.4" cy="186.9602" fill="#84BE84" rx="1.2" ry="1.2" style="stroke:#038048;stroke-width:0.4;"/><text fill="#000000" font-family="sans-serif" font-size="5.6" lengthAdjust="spacing" textLength="48.866" x="495" y="188.6789">incException(): void</text><ellipse cx="491.4" cy="194.4086" fill="#84BE84" rx="1.2" ry="1.2" style="stroke:#038048;stroke-width:0.4;"/><text fill="#000000" font-family="sans-serif" font-size="5.6" lengthAdjust="spacing" textLength="42.9461" x="495" y="196.1273">incFiltered(): void</text><ellipse cx="491.4" cy="201.857" fill="#84BE84" rx="1.2" ry="1.2" style="stroke:#038048;stroke-width:0.4;"/><text fill="#000000" font-family="sans-serif" font-size="5.6" lengthAdjust="spacing" textLength="100.7398" x="495" y="203.5758">setInitializer(initializer: callable|null): void</text><ellipse cx="491.4" cy="209.3055" fill="#84BE84" rx="1.2" ry="1.2" style="stroke:#038048;stroke-width:0.4;"/><text fill="#000000" font-family="sans-serif" font-size="5.6" lengthAdjust="spacing" textLength="96.0668" x="495" y="211.0242">setObjectFilter(filter: callable|null): void</text><ellipse cx="491.4" cy="216.7539" fill="#84BE84" rx="1.2" ry="1.2" style="stroke:#038048;stroke-width:0.4;"/><text fill="#000000" font-family="sans-serif" font-size="5.6" lengthAdjust="spacing" textLength="116.0059" x="495" y="218.4727">setObjectMapping(mapping: callable|null): void</text><ellipse cx="491.4" cy="224.2023" fill="#84BE84" rx="1.2" ry="1.2" style="stroke:#038048;stroke-width:0.4;"/><text fill="#000000" font-family="sans-serif" font-size="5.6" lengthAdjust="spacing" textLength="106.0473" x="495" y="225.9211">setObjectLoader(loader: callable|null): void</text><ellipse cx="491.4" cy="231.6508" fill="#84BE84" rx="1.2" ry="1.2" style="stroke:#038048;stroke-width:0.4;"/><text fill="#000000" font-family="sans-serif" font-size="5.6" lengthAdjust="spacing" textLength="97.3164" x="495" y="233.3695">setFinalizer(finalizer: callable|null): void</text><ellipse cx="491.4" cy="239.0992" fill="#84BE84" rx="1.2" ry="1.2" style="stroke:#038048;stroke-width:0.4;"/><text fill="#000000" font-family="sans-serif" font-size="5.6" lengthAdjust="spacing" textLength="139.7758" x="495" y="240.818">objectLoader(me: OpenDataLoader, object: object): bool</text><ellipse cx="491.4" cy="246.5477" fill="#84BE84" rx="1.2" ry="1.2" style="stroke:#038048;stroke-width:0.4;"/><text fill="#000000" font-family="sans-serif" font-size="5.6" lengthAdjust="spacing" textLength="133.2242" x="495" y="248.2664">addPreparedStatement(name: string, sql: string): bool</text><ellipse cx="491.4" cy="253.9961" fill="#84BE84" rx="1.2" ry="1.2" style="stroke:#038048;stroke-width:0.4;"/><text fill="#000000" font-family="sans-serif" font-size="5.6" lengthAdjust="spacing" textLength="136.8445" x="495" y="255.7148">getPreparedStatement(name: string): false|mysqli_stmt</text><ellipse cx="491.4" cy="261.4445" fill="#84BE84" rx="1.2" ry="1.2" style="stroke:#038048;stroke-width:0.4;"/><text fill="#000000" font-family="sans-serif" font-size="5.6" lengthAdjust="spacing" textLength="109.5637" x="495" y="263.1633">closePreparedStatement(name: string): void</text><ellipse cx="491.4" cy="268.893" fill="#84BE84" rx="1.2" ry="1.2" style="stroke:#038048;stroke-width:0.4;"/><text fill="#000000" font-family="sans-serif" font-size="5.6" lengthAdjust="spacing" textLength="201.9691" x="495" y="270.6117">addMap(field: string, column: string, [default: mixed = ''], [pkey: bool = false]): void</text><ellipse cx="491.4" cy="276.3414" fill="#84BE84" rx="1.2" ry="1.2" style="stroke:#038048;stroke-width:0.4;"/><text fill="#000000" font-family="sans-serif" font-size="5.6" lengthAdjust="spacing" textLength="38.8992" x="495" y="278.0602">getTitle(): string</text><ellipse cx="491.4" cy="283.7898" fill="#84BE84" rx="1.2" ry="1.2" style="stroke:#038048;stroke-width:0.4;"/><text fill="#000000" font-family="sans-serif" font-size="5.6" lengthAdjust="spacing" textLength="52.2867" x="495" y="285.5086">getResource(): string</text><ellipse cx="491.4" cy="291.2383" fill="#84BE84" rx="1.2" ry="1.2" style="stroke:#038048;stroke-width:0.4;"/><text fill="#000000" font-family="sans-serif" font-size="5.6" lengthAdjust="spacing" textLength="58.8246" x="495" y="292.957">getConnection(): mysqli</text><ellipse cx="491.4" cy="298.6867" fill="#84BE84" rx="1.2" ry="1.2" style="stroke:#038048;stroke-width:0.4;"/><text fill="#000000" font-family="sans-serif" font-size="5.6" lengthAdjust="spacing" textLength="70.3445" x="495" y="300.4055">getDestinationTable(): string</text><ellipse cx="491.4" cy="306.1352" fill="#84BE84" rx="1.2" ry="1.2" style="stroke:#038048;stroke-width:0.4;"/><text fill="#000000" font-family="sans-serif" font-size="5.6" lengthAdjust="spacing" textLength="52.9074" x="495" y="307.8539">getKeyName(): string</text></g><g id="elem_GMN7"><path d="M366,195.4 L366,213.2328 A0,0 0 0 0 366,213.2328 L472.682,213.2328 A0,0 0 0 0 472.682,213.2328 L472.682,206 L486.936,204.4 L472.682,202.8 L472.682,199.4 L468.682,195.4 L366,195.4 A0,0 0 0 0 366,195.4 " fill="#FEFFDD" style="stroke:#181818;stroke-width:0.2;"/><path d="M468.682,195.4 L468.682,199.4 L472.682,199.4 L468.682,195.4 " fill="#FEFFDD" style="stroke:#181818;stroke-width:0.2;"/><text fill="#000000" font-family="sans-serif" font-size="5.2" lengthAdjust="spacing" textLength="62.4355" x="368.4" y="203.0113">Utilize for side loading data</text><text fill="#000000" font-family="sans-serif" font-size="5.2" lengthAdjust="spacing" textLength="98.282" x="368.4" y="209.9277">from the Open Data API into the database.</text></g><!--class OpenDataMainLoader--><g id="elem_OpenDataMainLoader"><rect codeLine="83" fill="#F1F1F1" height="71.3391" id="OpenDataMainLoader" rx="1" ry="1" style="stroke:#181818;stroke-width:0.2;" width="282.525" x="487" y="2.8"/><ellipse cx="599.0109" cy="9.2" fill="#ADD1B2" rx="4.4" ry="4.4" style="stroke:#181818;stroke-width:0.4;"/><path d="M600.1172,7.55 Q600.1797,7.4625 600.2547,7.4188 Q600.3297,7.375 600.4172,7.375 Q600.5672,7.375 600.6609,7.4813 Q600.7547,7.5813 600.7547,7.825 L600.7547,8.4063 Q600.7547,8.65 600.6609,8.7563 Q600.5672,8.8625 600.4172,8.8625 Q600.2797,8.8625 600.1984,8.7813 Q600.1172,8.7063 600.0734,8.5 Q600.0547,8.3563 599.9797,8.2813 Q599.8484,8.1313 599.6047,8.0438 Q599.3609,7.9563 599.1109,7.9563 Q598.8047,7.9563 598.5484,8.0875 Q598.2984,8.2188 598.0984,8.5188 Q597.9047,8.8188 597.9047,9.2313 L597.9047,9.6688 Q597.9047,10.1625 598.2609,10.4938 Q598.6172,10.8188 599.2547,10.8188 Q599.6297,10.8188 599.8922,10.7188 Q600.0484,10.6563 600.2172,10.4813 Q600.3234,10.375 600.3797,10.3438 Q600.4422,10.3125 600.5234,10.3125 Q600.6547,10.3125 600.7547,10.4188 Q600.8609,10.5188 600.8609,10.6563 Q600.8609,10.7938 600.7234,10.9563 Q600.5234,11.1875 600.2047,11.3188 Q599.7734,11.5 599.2547,11.5 Q598.6484,11.5 598.1672,11.25 Q597.7734,11.05 597.4984,10.625 Q597.2234,10.1938 597.2234,9.6813 L597.2234,9.2188 Q597.2234,8.6875 597.4672,8.2313 Q597.7172,7.7688 598.1547,7.525 Q598.5922,7.275 599.0859,7.275 Q599.3797,7.275 599.6359,7.3438 Q599.8984,7.4063 600.1172,7.55 Z " fill="#000000"/><text fill="#000000" font-family="sans-serif" font-size="5.6" lengthAdjust="spacing" textLength="55.1031" x="607.2109" y="11.5188">OpenDataMainLoader</text><line style="stroke:#181818;stroke-width:0.2;" x1="487.4" x2="769.125" y1="15.6" y2="15.6"/><line style="stroke:#181818;stroke-width:0.2;" x1="487.4" x2="769.125" y1="18.8" y2="18.8"/><ellipse cx="491.4" cy="24.7242" fill="#84BE84" rx="1.2" ry="1.2" style="stroke:#038048;stroke-width:0.4;"/><text fill="#000000" font-family="sans-serif" font-size="5.6" lengthAdjust="spacing" textLength="82.1652" x="495" y="26.443">getWhenTimeBegan(): DateTime</text><ellipse cx="491.4" cy="32.1727" fill="#84BE84" rx="1.2" ry="1.2" style="stroke:#038048;stroke-width:0.4;"/><text fill="#000000" font-family="sans-serif" font-size="5.6" lengthAdjust="spacing" textLength="68.1707" x="495" y="33.8914">getLastLoaded(): DateTime</text><ellipse cx="491.4" cy="39.6211" fill="#84BE84" rx="1.2" ry="1.2" style="stroke:#038048;stroke-width:0.4;"/><text fill="#000000" font-family="sans-serif" font-size="5.6" lengthAdjust="spacing" textLength="70.6563" x="495" y="41.3398">getLastUpdated(): DateTime</text><ellipse cx="491.4" cy="47.0695" fill="#84BE84" rx="1.2" ry="1.2" style="stroke:#038048;stroke-width:0.4;"/><text fill="#000000" font-family="sans-serif" font-size="5.6" lengthAdjust="spacing" textLength="128.8902" x="495" y="48.7883">addSideLoader(sideLoader: OpenDataLoader): void</text><ellipse cx="491.4" cy="54.518" fill="#84BE84" rx="1.2" ry="1.2" style="stroke:#038048;stroke-width:0.4;"/><text fill="#000000" font-family="sans-serif" font-size="5.6" lengthAdjust="spacing" textLength="82.9582" x="495" y="56.2367">load([truncate: bool = false]): void</text><ellipse cx="491.4" cy="61.9664" fill="#84BE84" rx="1.2" ry="1.2" style="stroke:#038048;stroke-width:0.4;"/><text fill="#000000" font-family="sans-serif" font-size="5.6" lengthAdjust="spacing" textLength="132.1277" x="495" y="63.6852">loadFiltered(filter: string, [truncate: bool = false]): void</text><ellipse cx="491.4" cy="69.4148" fill="#84BE84" rx="1.2" ry="1.2" style="stroke:#038048;stroke-width:0.4;"/><text fill="#000000" font-family="sans-serif" font-size="5.6" lengthAdjust="spacing" textLength="272.125" x="495" y="71.1336">__construct(title: string, conn: mysqli, resource: string, srcTable: string, dstTable: string, [keyName: string = ''])</text></g><g id="elem_GMN11"><path d="M365,26 L365,50.7492 A0,0 0 0 0 365,50.7492 L473.1293,50.7492 A0,0 0 0 0 473.1293,50.7492 L473.1293,40 L486.976,38.4 L473.1293,36.8 L473.1293,30 L469.1293,26 L365,26 A0,0 0 0 0 365,26 " fill="#FEFFDD" style="stroke:#181818;stroke-width:0.2;"/><path d="M469.1293,26 L469.1293,30 L473.1293,30 L469.1293,26 " fill="#FEFFDD" style="stroke:#181818;stroke-width:0.2;"/><text fill="#000000" font-family="sans-serif" font-size="5.2" lengthAdjust="spacing" textLength="80.6381" x="367.4" y="33.6113">Main loader class that orchestrates</text><text fill="#000000" font-family="sans-serif" font-size="5.2" lengthAdjust="spacing" textLength="99.7293" x="367.4" y="40.5277">the loading of data from the Open Data API</text><text fill="#000000" font-family="sans-serif" font-size="5.2" lengthAdjust="spacing" textLength="72.5639" x="367.4" y="47.4441">and inserting into the database.</text></g><!--class OpenDataFormat--><g id="elem_OpenDataFormat"><rect codeLine="113" fill="#F1F1F1" height="41.5453" id="OpenDataFormat" rx="1" ry="1" style="stroke:#181818;stroke-width:0.2;" width="56.0633" x="149.4" y="334.8"/><ellipse cx="155.4" cy="341.2" fill="#EB937F" rx="4.4" ry="4.4" style="stroke:#181818;stroke-width:0.4;"/><path d="M154.9438,341.5188 L154.9438,342.5188 L156.675,342.5188 L156.675,342.15 Q156.675,341.9063 156.7688,341.8 Q156.8688,341.6938 157.0188,341.6938 Q157.1688,341.6938 157.2625,341.8 Q157.3563,341.9063 157.3563,342.15 L157.3563,343.2 L154.1563,343.2 Q153.9063,343.2 153.8,343.1063 Q153.7,343.0125 153.7,342.8563 Q153.7,342.7063 153.8063,342.6125 Q153.9125,342.5188 154.1563,342.5188 L154.2625,342.5188 L154.2625,339.8563 L154.1563,339.8563 Q153.9063,339.8563 153.8,339.7625 Q153.7,339.6688 153.7,339.5125 Q153.7,339.3625 153.8,339.2688 Q153.9063,339.175 154.1563,339.175 L157.2063,339.175 L157.2063,340.2125 Q157.2063,340.4563 157.1125,340.5625 Q157.025,340.6625 156.8688,340.6625 Q156.7188,340.6625 156.625,340.5625 Q156.5313,340.4563 156.5313,340.2125 L156.5313,339.8563 L154.9438,339.8563 L154.9438,340.8375 L155.5375,340.8375 Q155.5375,340.575 155.5875,340.5 Q155.6938,340.3375 155.8813,340.3375 Q156.0313,340.3375 156.125,340.4438 Q156.2188,340.5438 156.2188,340.7875 L156.2188,341.575 Q156.2188,341.7938 156.1688,341.8688 Q156.0625,342.025 155.8813,342.025 Q155.6938,342.025 155.5875,341.8625 Q155.5375,341.7875 155.5375,341.5188 L154.9438,341.5188 Z " fill="#000000"/><text fill="#000000" font-family="sans-serif" font-size="5.6" lengthAdjust="spacing" textLength="43.2633" x="161" y="343.5188">OpenDataFormat</text><line style="stroke:#181818;stroke-width:0.2;" x1="149.8" x2="205.0633" y1="347.6" y2="347.6"/><text fill="#000000" font-family="sans-serif" font-size="5.6" lengthAdjust="spacing" textLength="14.9352" x="151.8" y="355.243">JSON</text><text fill="#000000" font-family="sans-serif" font-size="5.6" lengthAdjust="spacing" textLength="11.5145" x="151.8" y="362.6914">XML</text><text fill="#000000" font-family="sans-serif" font-size="5.6" lengthAdjust="spacing" textLength="13.0648" x="151.8" y="370.1398">RAW</text><line style="stroke:#181818;stroke-width:0.2;" x1="149.8" x2="205.0633" y1="373.1453" y2="373.1453"/></g><!--reverse link OpenDataMainLoader to OpenDataLoader--><g id="link_OpenDataMainLoader_OpenDataLoader"><path codeLine="119" d="M623.646,81.2303 C623.354,88.5743 623.428,89.48 623.288,97.936 " fill="#FFFFFF" fill-opacity="0.00000" id="OpenDataMainLoader-backto-OpenDataLoader" style="stroke:#181818;stroke-width:0.4;"/><polygon fill="#FFFFFF" fill-opacity="0.00000" points="623.932,74.036,621.2478,81.135,626.0441,81.3257,623.932,74.036" style="stroke:#181818;stroke-width:0.4;"/></g><!--reverse link OpenDataMainLoader to OpenDataLoader--><g id="link_OpenDataMainLoader_OpenDataLoader"><path codeLine="120" d="M632.9197,78.8317 C633.2317,86.1757 633.256,89.48 633.4,97.936 " fill="#FFFFFF" fill-opacity="0.00000" id="OpenDataMainLoader-backto-OpenDataLoader-1" style="stroke:#181818;stroke-width:0.4;"/><polygon fill="#FFFFFF" fill-opacity="0.00000" points="632.716,74.036,631.2193,76.5017,632.9197,78.8317,634.4164,76.3659,632.716,74.036" style="stroke:#181818;stroke-width:0.4;"/></g><!--link OpenDataMainLoader to OpenDataRetriever--><g id="link_OpenDataMainLoader_OpenDataRetriever"><path codeLine="121" d="M486.84,72.456 C484.476,72.976 482.128,73.492 479.8,74 C426.316,85.652 410.188,78.604 359,98 C297.808,121.188 235.2345,162.4848 202.0385,185.9968 " fill="#FFFFFF" fill-opacity="0.00000" id="OpenDataMainLoader-to-OpenDataRetriever" style="stroke:#181818;stroke-width:0.4;"/><polygon fill="#181818" points="200.08,187.384,203.9425,186.6089,201.7121,186.228,202.093,183.9976,200.08,187.384" style="stroke:#181818;stroke-width:0.4;"/></g><!--link OpenDataRetriever to OpenDataFormat--><g id="link_OpenDataRetriever_OpenDataFormat"><path codeLine="122" d="M177.4,221.472 C177.4,249.196 177.4,302.296 177.4,332.344 " fill="#FFFFFF" fill-opacity="0.00000" id="OpenDataRetriever-to-OpenDataFormat" style="stroke:#181818;stroke-width:0.4;"/><polygon fill="#181818" points="177.4,334.744,179,331.144,177.4,332.744,175.8,331.144,177.4,334.744" style="stroke:#181818;stroke-width:0.4;"/></g><!--SRC=[nLXDR-Cs4BtxLn0m5b6GEDbBByQsW6ChhLlRSMqPAR1PU6c9jjcbAAr81KdN-zyx8qeszHMtwA6N19fv798pRnv9N-orZbN_zZOMLEeq53T-5DxwWYhL2pZT9JJiTB9FyX0pEQAQBfXEE7jc2VdM8UIRqbHp_tjlwdg3zMenwHC5VhcpVNU3fTlcknzFF7UndWyMWsc3_wgORieqTHAceZJnMG6yx9EGlx2WQK0DV4q-RgCafBf_tCjzzar-h1Zw_L-N3xDFC43ma0EUImJzyFuzsgBjLh6ZCJDjkT0iAIO2wyN59sjjlVNQZoGuKryxbsZOCUsaYR3saU_yUqT6cX4TnNsoO2g6ONmZ686LayJi36S8OArFSfj48T5xbYsVuFh9O3w-gLPi4j6WKgwhyMpfBhocXA_ceu7dDdb6xiHjzYp1CsoArlK6TnDtFLou47Cz6atQCTvYDHkUHGqV9glfRBtylP5CPbUs5sjXh6Gyynx8vtVgCt7UtTpSO1aqru9PWNfG9ibypIC9rNjLNmL7QvL9Q5E9xz5DUNIWTCtsXRtEQ5YPHAIXL7r2auI-dYnJ6bksE64nJLYmXBsna4cjIix8Pqgnu4Z3RFuq5jm7UCdANdmMcorPLaFPIW0kkUPKyB-Gp3uL0dTpaAaGw8qsVq9kxdEkjxXX4p7iizLloDZWtdBPDlELtJ-bcbqJh5XHgsjIx_bgdQv9jKhGlvKYvGsCCxCNvgUQ0QCSfKFeUbpIuJXGSG6LwPDD50aOjQL2CUny_3wOHQrXJQdGTh2Yedd878SVsOxFnCL8NFhpWW8Es9yZ7kJsKK62YjqjQ52nt-T4iCsWR-CJ5PnsMfJ7F5W4SRPDF6d2vunnmaRcD8qm77944vNA-Fk2L4uRlIoyJL07sL0Mq6jY0FtylrKE6WJpQhiwqc8KyF2hhVR5G3W7tXu8sApu1uiaED0NaM9dXnOxW_L1bY47J0Hsww3gM6qGi2q5gkO7b-a2CCVG7dKg5h5X2nwsf7DfQHnQ5talrXp3eyYYwoYpw1enfQ5GwCjwj3RsDzEf9NjtLwRhPLr1459YvvkOWf5lWdAUj61En6i2D5TFMItOFVMSyn64JnfPRz63BhQ2MPRJHj9kqG7sBB3IPLQaUhQpc4DpLDMrxnGNJqUiQIeXh_OMUbbP54lqdC8zae4RIwTAipI0veBwR1-980zd7Pm9WomO-8dprbAEmUwu38u1lTUuTTOIKDMJPqxS_5Ocs1PyAyqnZTcLJF40p92eSvSoF6MZp8oe3LMiTasRKYuRhchTx6RTViFAtAtNEUDklTFrhE1jbofhWZSXPf8soEClxcpjZQVk-ixzUJ3hOsQOnqEMNQOWZMRhzYK7icEwB2YZqRwA8OyL1-h3uvv9_BnZEvh9IyK_ESPiSUQ1grvGqELnaSvflTL3mX96fCLRlMlZZeTm-IK1udjsV2-nNqZ5goEJceEXiGro_kEJ9YlEySwczb4g0jovKn84CrTxEakGndBqqcnWsLzax7-x3lvBLMvItBDANT8Qr0HYxZd4g8NUmuCrIlmzd9G9pAwU9AfAeK7HDXCOqgn2JvBA0AgCoeVe9b5YCWsh3sJK8tmImxy_fXFuknWyma8x3TBruT3hLNgY2HRz8rIlzrFzTuTE_PS86sUMtEdiKPhZX3z3aaZ8mWs8Is641Fl0oegP-b_exeJz6m00]--></g></svg>